<?xml version="1.0" encoding="UTF-8" standalone="no"?>
<!-- Created with Inkscape (http://www.inkscape.org/) -->

<svg
   width="33.744892mm"
   height="11.139203mm"
   viewBox="0 0 33.744892 11.139203"
   version="1.1"
   id="svg1"
   sodipodi:docname="vesp_logo_export.svg"
   inkscape:version="1.3 (0e150ed6c4, 2023-07-21)"
   xmlns:inkscape="http://www.inkscape.org/namespaces/inkscape"
   xmlns:sodipodi="http://sodipodi.sourceforge.net/DTD/sodipodi-0.dtd"
   xmlns="http://www.w3.org/2000/svg"
   xmlns:svg="http://www.w3.org/2000/svg">
  <sodipodi:namedview
     id="namedview1"
     pagecolor="#ffffff"
     bordercolor="#000000"
     borderopacity="0.25"
     inkscape:showpageshadow="2"
     inkscape:pageopacity="0.0"
     inkscape:pagecheckerboard="0"
     inkscape:deskcolor="#d1d1d1"
     inkscape:document-units="mm"
     inkscape:zoom="23.443407"
     inkscape:cx="84.458714"
     inkscape:cy="17.467598"
     inkscape:window-width="2560"
     inkscape:window-height="1360"
     inkscape:window-x="0"
     inkscape:window-y="0"
     inkscape:window-maximized="1"
     inkscape:current-layer="layer1" />
  <defs
     id="defs1">
    <clipPath
       clipPathUnits="userSpaceOnUse"
       id="clipPath31">
      <rect
         style="fill:#000000;fill-opacity:1;stroke:none;stroke-width:0.1;paint-order:stroke fill markers"
         id="rect31"
         width="6.2298965"
         height="6.2298965"
         x="4.2209806"
         y="5.5753064" />
    </clipPath>
  </defs>
  <g
     inkscape:label="Vrstva 1"
     inkscape:groupmode="layer"
     id="layer1"
     transform="translate(-2.7375252,-3.4239097)">
    <g
       id="text1"
       style="font-weight:100;font-size:5.64444px;font-family:'Exo 2';-inkscape-font-specification:'Exo 2 Thin';fill:#003262;stroke:#ffffff;stroke-width:0.1;paint-order:stroke fill markers;stroke-opacity:1"
       aria-label="VESP-α">
      <path
         style="font-weight:600;font-family:'IBM Plex Sans';-inkscape-font-specification:'IBM Plex Sans Semi-Bold';stroke:#ffffff;stroke-opacity:1"
         d="M 15.407618,10.963421 14.120686,7.0236016 h 0.761999 l 0.603955,1.9191097 0.349955,1.3095097 h 0.01693 L 16.19784,8.9427113 16.801795,7.0236016 h 0.739421 l -1.286932,3.9398194 z m 2.686756,0 V 7.0236016 h 2.596443 V 7.6840011 H 18.83944 v 0.9539104 h 1.636888 V 9.298311 H 18.83944 v 1.00471 h 1.851377 v 0.6604 z m 4.61151,0.06773 q -0.508,0 -0.8636,-0.180622 -0.349955,-0.180622 -0.603955,-0.474133 l 0.502355,-0.4854218 q 0.2032,0.2370668 0.451556,0.3612438 0.253999,0.124178 0.558799,0.124178 0.344311,0 0.519289,-0.146755 0.174977,-0.1524 0.174977,-0.4064 0,-0.1975555 -0.112888,-0.3217331 Q 23.219528,9.3773332 22.909084,9.3208888 L 22.536551,9.2644444 Q 21.356863,9.0781778 21.356863,8.118623 q 0,-0.2652887 0.09596,-0.4797774 0.1016,-0.2144887 0.287866,-0.3668886 0.186267,-0.1523999 0.445911,-0.2314221 0.265289,-0.084667 0.598311,-0.084667 0.445911,0 0.778933,0.1467555 0.333022,0.1467554 0.570088,0.4346219 l -0.508,0.4797774 Q 23.479172,7.836401 23.270328,7.7235122 23.061483,7.6106234 22.745395,7.6106234 q -0.321733,0 -0.485422,0.1241777 -0.158044,0.1185332 -0.158044,0.3386664 0,0.2257776 0.129822,0.333022 0.129822,0.1072443 0.417688,0.1580443 l 0.366889,0.067733 q 0.598311,0.1072443 0.880533,0.3838219 0.287866,0.2709331 0.287866,0.7619994 0,0.2822216 -0.1016,0.5136436 -0.09596,0.225778 -0.287866,0.395111 -0.186267,0.163689 -0.462844,0.254 -0.270934,0.09031 -0.626533,0.09031 z m 2.22391,-0.06773 V 7.0236016 h 1.772354 q 0.270933,0 0.485422,0.090311 0.220133,0.084667 0.372533,0.2483553 0.1524,0.1580444 0.231422,0.383822 0.07902,0.2257776 0.07902,0.4967107 0,0.2765776 -0.07902,0.5023552 -0.07902,0.2201331 -0.231422,0.3838219 -0.1524,0.1580443 -0.372533,0.2483554 -0.214489,0.084667 -0.485422,0.084667 H 25.67486 V 10.963421 Z M 25.67486,8.8185336 h 0.959554 q 0.214489,0 0.338667,-0.1128888 0.124178,-0.1185332 0.124178,-0.333022 V 8.1129786 q 0,-0.2144887 -0.124178,-0.3273776 Q 26.848903,7.6727122 26.634414,7.6727122 H 25.67486 Z"
         id="path48" />
      <path
         style="font-weight:600;font-family:'IBM Plex Sans';-inkscape-font-specification:'IBM Plex Sans Semi-Bold';fill:#fdb515;stroke:#ffffff;stroke-opacity:1"
         d="M 28.412418,9.6031108 V 8.8862669 h 1.61431 v 0.7168439 z m 5.475108,1.3603102 h -0.310444 q -0.299155,0 -0.451555,-0.118533 -0.1524,-0.124178 -0.214489,-0.434622 l -0.06209,-0.344311 h -0.01693 q -0.129822,0.479777 -0.378177,0.722488 -0.242711,0.242711 -0.671689,0.242711 -0.541866,0 -0.857955,-0.400755 -0.316088,-0.400755 -0.316088,-1.140177 0,-0.7394217 0.316088,-1.1401769 0.316089,-0.4007553 0.857955,-0.4007553 0.423333,0 0.682978,0.2314221 0.265288,0.231422 0.39511,0.7281327 h 0.02258 l 0.118533,-0.4684885 0.135467,-0.423333 h 0.733777 l -0.643466,1.4562656 0.344311,0.9143993 h 0.316088 z M 31.83295,10.432843 q 0.169333,0 0.299156,-0.118533 0.129822,-0.124177 0.237066,-0.4289772 L 32.510283,9.4845775 32.369172,9.0951112 Q 32.261928,8.7903114 32.132106,8.6661337 32.002283,8.541956 31.83295,8.541956 q -0.214488,0 -0.344311,0.1806221 -0.124177,0.1749777 -0.124177,0.5475107 v 0.4346219 q 0,0.3781773 0.124177,0.5531553 0.129823,0.174977 0.344311,0.174977 z"
         id="path49" />
    </g>
    <g
       id="g6"
       clip-path="url(#clipPath31)"
       transform="translate(0.9736135,0.30325666)">
      <path
         d="M 10.45072,5.5887194 V 11.805394 H 6.7444862 l -0.00465,0.01344 H 10.453304 V 5.5887194 Z"
         style="fill:#fdb515;stroke-width:0.1;paint-order:stroke fill markers"
         id="path47" />
      <path
         d="M 8.8420326,5.5752836 6.7444862,11.805394 H 10.45072 V 5.5752836 Z m 0.040308,4.1847575 c 0.1392292,0 0.2512305,0.036693 0.3358969,0.1100708 0.086548,0.071496 0.1522486,0.1854191 0.1974039,0.3415811 h 0.011369 l 0.050643,-0.200504 0.065112,-0.2170415 h 0.4175455 l -0.3271118,0.7307045 0.1689819,0.426331 h 0.1581299 v 0.324528 H 9.7939125 c -0.111007,0 -0.1940009,-0.02062 -0.2485636,-0.06201 -0.052681,-0.04327 -0.090077,-0.120503 -0.1126546,-0.23151 l -0.025322,-0.124024 h -0.00878 c -0.045155,0.150518 -0.1082322,0.263222 -0.1891357,0.338481 -0.079022,0.07526 -0.1878827,0.113171 -0.3271119,0.113171 -0.1825029,0 -0.3266524,-0.06622 -0.4320149,-0.19792 C 8.3468442,10.980194 8.295296,10.788339 8.295296,10.536221 c 0,-0.252117 0.051548,-0.443972 0.1550293,-0.5756754 0.1053625,-0.1335847 0.249512,-0.2005045 0.4320149,-0.2005045 z m 0.03669,0.3389969 c -0.062088,0 -0.1090914,0.02639 -0.1410766,0.07906 -0.031985,0.0508 -0.048059,0.132575 -0.048059,0.245463 v 0.222726 c 0,0.112888 0.016074,0.195882 0.048059,0.248564 0.031985,0.0508 0.078988,0.07596 0.1410766,0.07596 0.045155,0 0.086394,-0.01991 0.1240235,-0.05943 0.039511,-0.04139 0.075502,-0.107094 0.1074869,-0.197404 l 0.062012,-0.180351 -0.062012,-0.177767 c -0.031985,-0.09031 -0.067976,-0.155309 -0.1074869,-0.19482 -0.037629,-0.04139 -0.078868,-0.06201 -0.1240235,-0.06201 z"
         style="fill:#fdb515;stroke-width:0.1;paint-order:stroke fill markers"
         id="path46" />
      <path
         d="m 8.8823402,9.7600411 c -0.1825031,0 -0.3266523,0.06692 -0.4320149,0.2005045 C 8.3468441,10.092249 8.295296,10.284104 8.295296,10.536221 c 0,0.252118 0.051548,0.443972 0.1550293,0.575676 0.1053626,0.131703 0.2495118,0.19792 0.4320149,0.19792 0.1392293,0 0.2480898,-0.03791 0.3271119,-0.113171 0.080904,-0.07526 0.1439805,-0.187962 0.1891357,-0.338481 h 0.00878 l 0.025322,0.124024 c 0.022578,0.111007 0.059973,0.188237 0.1126546,0.23151 0.054563,0.04139 0.1375565,0.06201 0.2485636,0.06201 H 9.9603106 V 10.951183 H 9.8021807 L 9.6331988,10.524852 9.9603106,9.7941475 H 9.5427651 l -0.065112,0.2170415 -0.050643,0.200504 H 9.415641 C 9.3704857,10.05553 9.304785,9.941608 9.2182371,9.8701119 9.1335706,9.7967343 9.0215695,9.7600411 8.8823402,9.7600411 Z m 0.03669,0.3389969 c 0.045155,0 0.086394,0.02062 0.1240235,0.06201 0.039511,0.03951 0.075502,0.104512 0.1074869,0.19482 l 0.062012,0.177767 -0.062012,0.180351 c -0.031985,0.09031 -0.067976,0.156011 -0.1074869,0.197404 -0.03763,0.03951 -0.078868,0.05943 -0.1240235,0.05943 -0.062088,0 -0.1090914,-0.02516 -0.1410766,-0.07596 -0.031985,-0.05268 -0.048059,-0.135676 -0.048059,-0.248564 v -0.222726 c 0,-0.112888 0.016074,-0.194663 0.048059,-0.245463 0.031985,-0.05268 0.078988,-0.07906 0.1410766,-0.07906 z"
         style="font-weight:bold;font-size:2.82222px;font-family:'IBM Plex Sans';-inkscape-font-specification:'IBM Plex Sans Bold';fill:#003262;stroke-width:0.1;paint-order:stroke fill markers"
         id="path45" />
      <path
         d="m 8.836865,4.9882393 -4.7511312,0.304891 v 0.046509 h 0.1043864 l 1.135848,3.4767904 0.7606771,2.5879556 h 0.049609 L 6.9165688,8.8164294 8.0622353,5.339639 H 8.709741 Z M 4.0857338,7.7002185 V 12.71955 H 6.0380694 L 6.2137693,12.234309 H 5.5926186 Z"
         style="fill:#003262;stroke-width:0.1;paint-order:stroke fill markers"
         id="path44" />
      <path
         d="m 3.3012856,5.339639 2.291333,6.89467 H 6.600309 L 8.9216143,5.339639 H 8.0622353 L 6.9165688,8.8164294 6.1362546,11.404385 H 6.0866453 L 5.3259682,8.8164294 4.1901202,5.339639 Z"
         style="font-size:9.87778px;font-family:'IBM Plex Sans';-inkscape-font-specification:'IBM Plex Sans';fill:#ffffff;stroke-width:0.1;paint-order:stroke fill markers"
         id="path43" />
    </g>
  </g>
</svg>
